<svg width="11" height="15" viewBox="0 0 11 15" fill="none" xmlns="http://www.w3.org/2000/svg">
<path d="M7.09333 6.31L5.44444 7.95889L3.78778 6.31L2.69111 7.40667L4.34778 9.05556L2.69889 10.7044L3.79556 11.8011L5.44444 10.1522L7.09333 11.8011L8.19 10.7044L6.54111 9.05556L8.19 7.40667L7.09333 6.31ZM8.16667 1.27778L7.38889 0.5H3.5L2.72222 1.27778H0V2.83333H10.8889V1.27778H8.16667ZM0.777778 12.9444C0.777778 13.8 1.47778 14.5 2.33333 14.5H8.55556C9.41111 14.5 10.1111 13.8 10.1111 12.9444V3.61111H0.777778V12.9444ZM2.33333 5.16667H8.55556V12.9444H2.33333V5.16667Z" fill="#131313"/>
</svg>
