<svg width="14" height="18" viewBox="0 0 14 18" fill="none" xmlns="http://www.w3.org/2000/svg">
<path d="M6.99992 13.9998C6.22214 13.9998 5.47908 14.1214 4.77075 14.3644C4.06242 14.6075 3.41659 14.9721 2.83325 15.4582V15.6665H11.1666V15.4582C10.5833 14.9721 9.93742 14.6075 9.22908 14.3644C8.52075 14.1214 7.7777 13.9998 6.99992 13.9998ZM6.99992 12.3332C7.95825 12.3332 8.85408 12.479 9.68742 12.7707C10.5208 13.0623 11.2916 13.4721 11.9999 13.9998V2.33317H1.99992V13.9998C2.70825 13.4721 3.47909 13.0623 4.31242 12.7707C5.14575 12.479 6.04158 12.3332 6.99992 12.3332ZM6.99992 8.99984C6.6527 8.99984 6.35756 8.87831 6.1145 8.63525C5.87145 8.3922 5.74992 8.09706 5.74992 7.74984C5.74992 7.40261 5.87145 7.10748 6.1145 6.86442C6.35756 6.62136 6.6527 6.49984 6.99992 6.49984C7.34714 6.49984 7.64228 6.62136 7.88533 6.86442C8.12839 7.10748 8.24992 7.40261 8.24992 7.74984C8.24992 8.09706 8.12839 8.3922 7.88533 8.63525C7.64228 8.87831 7.34714 8.99984 6.99992 8.99984ZM1.99992 17.3332C1.54159 17.3332 1.14922 17.17 0.822835 16.8436C0.496446 16.5172 0.333252 16.1248 0.333252 15.6665V2.33317C0.333252 1.87484 0.496446 1.48248 0.822835 1.15609C1.14922 0.829698 1.54159 0.666504 1.99992 0.666504H11.9999C12.4583 0.666504 12.8506 0.829698 13.177 1.15609C13.5034 1.48248 13.6666 1.87484 13.6666 2.33317V15.6665C13.6666 16.1248 13.5034 16.5172 13.177 16.8436C12.8506 17.17 12.4583 17.3332 11.9999 17.3332H1.99992ZM6.99992 10.6665C7.80547 10.6665 8.49297 10.3818 9.06242 9.81234C9.63186 9.24289 9.91658 8.55539 9.91658 7.74984C9.91658 6.94428 9.63186 6.25678 9.06242 5.68734C8.49297 5.11789 7.80547 4.83317 6.99992 4.83317C6.19436 4.83317 5.50686 5.11789 4.93742 5.68734C4.36797 6.25678 4.08325 6.94428 4.08325 7.74984C4.08325 8.55539 4.36797 9.24289 4.93742 9.81234C5.50686 10.3818 6.19436 10.6665 6.99992 10.6665Z" fill="#2C9743"/>
</svg>
