<svg width="21" height="21" viewBox="0 0 21 21" fill="none" xmlns="http://www.w3.org/2000/svg">
<path d="M15.4512 8.146L18.3887 5.18766C18.5554 5.021 18.7533 4.93766 18.9825 4.93766C19.2116 4.93766 19.4095 5.021 19.5762 5.18766C19.7429 5.35433 19.8262 5.55225 19.8262 5.78141C19.8262 6.01058 19.7429 6.2085 19.5762 6.37516L16.0345 9.91683C15.8679 10.0835 15.6734 10.1668 15.4512 10.1668C15.229 10.1668 15.0345 10.0835 14.8679 9.91683L13.097 8.146C12.9304 7.97933 12.847 7.78141 12.847 7.55225C12.847 7.32308 12.9304 7.12516 13.097 6.9585C13.2637 6.79183 13.4582 6.7085 13.6804 6.7085C13.9026 6.7085 14.097 6.79183 14.2637 6.9585L15.4512 8.146ZM8.32621 10.5002C7.40955 10.5002 6.62482 10.1738 5.97205 9.521C5.31927 8.86822 4.99288 8.0835 4.99288 7.16683C4.99288 6.25016 5.31927 5.46544 5.97205 4.81266C6.62482 4.15988 7.40955 3.8335 8.32621 3.8335C9.24288 3.8335 10.0276 4.15988 10.6804 4.81266C11.3332 5.46544 11.6595 6.25016 11.6595 7.16683C11.6595 8.0835 11.3332 8.86822 10.6804 9.521C10.0276 10.1738 9.24288 10.5002 8.32621 10.5002ZM1.65955 15.5002V14.8335C1.65955 14.3613 1.78107 13.9272 2.02413 13.5314C2.26718 13.1356 2.5901 12.8335 2.99288 12.6252C3.85399 12.1946 4.72899 11.8717 5.61788 11.6564C6.50677 11.4411 7.40955 11.3335 8.32621 11.3335C9.24288 11.3335 10.1457 11.4411 11.0345 11.6564C11.9234 11.8717 12.7984 12.1946 13.6595 12.6252C14.0623 12.8335 14.3852 13.1356 14.6283 13.5314C14.8714 13.9272 14.9929 14.3613 14.9929 14.8335V15.5002C14.9929 15.9585 14.8297 16.3509 14.5033 16.6772C14.1769 17.0036 13.7845 17.1668 13.3262 17.1668H3.32621C2.86788 17.1668 2.47552 17.0036 2.14913 16.6772C1.82274 16.3509 1.65955 15.9585 1.65955 15.5002Z" fill="#2C9743"/>
</svg>
