<svg width="20" height="21" viewBox="0 0 20 21" fill="none" xmlns="http://www.w3.org/2000/svg">
<path d="M10.6875 12.125L13.8 10.1375C14.0375 9.9875 14.1563 9.775 14.1563 9.5C14.1563 9.225 14.0375 9.0125 13.8 8.8625L10.6875 6.875C10.4375 6.7 10.1813 6.6875 9.91877 6.8375C9.65627 6.9875 9.52502 7.20625 9.52502 7.49375V11.5063C9.52502 11.7937 9.65627 12.0125 9.91877 12.1625C10.1813 12.3125 10.4375 12.3 10.6875 12.125ZM6.90002 15.5C6.48752 15.5 6.13452 15.3533 5.84102 15.0597C5.54702 14.7657 5.40002 14.4125 5.40002 14V5C5.40002 4.5875 5.54702 4.23425 5.84102 3.94025C6.13452 3.64675 6.48752 3.5 6.90002 3.5H15.9C16.3125 3.5 16.6658 3.64675 16.9598 3.94025C17.2533 4.23425 17.4 4.5875 17.4 5V14C17.4 14.4125 17.2533 14.7657 16.9598 15.0597C16.6658 15.3533 16.3125 15.5 15.9 15.5H6.90002ZM3.90002 18.5C3.48752 18.5 3.13452 18.3533 2.84102 18.0597C2.54702 17.7657 2.40002 17.4125 2.40002 17V7.25C2.40002 7.0375 2.47202 6.85925 2.61602 6.71525C2.75952 6.57175 2.93752 6.5 3.15002 6.5C3.36252 6.5 3.54077 6.57175 3.68477 6.71525C3.82827 6.85925 3.90002 7.0375 3.90002 7.25V17H13.65C13.8625 17 14.0405 17.072 14.184 17.216C14.328 17.3595 14.4 17.5375 14.4 17.75C14.4 17.9625 14.328 18.1405 14.184 18.284C14.0405 18.428 13.8625 18.5 13.65 18.5H3.90002Z" fill="#353F9A"/>
</svg>
